<?xml version="1.0" encoding="iso-8859-1"?>
<!DOCTYPE svg PUBLIC "-//W3C//DTD SVG 1.1//EN" "http://www.w3.org/Graphics/SVG/1.1/DTD/svg11.dtd">
<svg xmlns="http://www.w3.org/2000/svg" xmlns:xlink="http://www.w3.org/1999/xlink" version="1.1" viewBox="0 0 297 297" enable-background="new 0 0 297 297" width="512px" height="512px">
  <g>
    <path d="m294.321,129.815l-140.256-126.37c-3.079-2.774-7.757-2.776-10.838-0.006l-140.543,126.371c-2.494,2.244-3.348,5.792-2.148,8.925 1.202,3.133 4.208,5.2 7.564,5.2h23.944l111.126-98.928c3.098-2.837 7.85-2.839 10.947,0.001l111.117,98.927h23.664c3.354,0 6.36-2.065 7.563-5.196 1.202-3.132 0.352-6.679-2.14-8.924z" fill="#FFFFFF"/>
    <path d="m42.077,156.72v130.816c0,4.473 3.627,8.101 8.101,8.101h196.928c4.474,0 8.101-3.628 8.101-8.101v-130.816l-106.563-94.752-106.567,94.752zm65.221,39.789c2.289,3.934 5.424,9.322 5.424,19.016 0,9.694-3.135,15.083-5.424,19.018-1.727,2.967-2.677,4.6-2.677,8.83 0,5.592-4.533,10.126-10.126,10.126-5.592,0-10.126-4.534-10.126-10.126 0-9.692 3.135-15.081 5.424-19.015 1.726-2.968 2.678-4.601 2.678-8.833 0-4.23-0.952-5.864-2.678-8.832-2.289-3.934-5.424-9.322-5.424-19.015 0-9.692 3.135-15.08 5.424-19.015 1.727-2.966 2.678-4.601 2.678-8.83 0-5.592 4.533-10.125 10.125-10.125 5.593,0 10.126,4.533 10.126,10.125 0,9.693-3.135,15.08-5.424,19.016-1.727,2.966-2.677,4.6-2.677,8.829 1.42109e-14,4.23 0.95,5.864 2.677,8.831zm82.742,10.183c-2.289-3.934-5.424-9.322-5.424-19.015 0-9.692 3.135-15.08 5.424-19.015 1.727-2.966 2.677-4.601 2.677-8.83 0-5.592 4.534-10.125 10.126-10.125 5.592,0 10.126,4.533 10.126,10.125 0,9.693-3.135,15.08-5.424,19.016-1.727,2.966-2.677,4.6-2.677,8.829 0,4.23 0.95,5.864 2.677,8.831 2.289,3.934 5.424,9.322 5.424,19.016 0,9.694-3.135,15.083-5.424,19.018-1.727,2.967-2.677,4.6-2.677,8.83 0,5.592-4.534,10.126-10.126,10.126-5.592,0-10.126-4.534-10.126-10.126 0-9.692 3.135-15.081 5.424-19.015 1.726-2.968 2.677-4.601 2.677-8.833 2.84217e-14-4.23-0.952-5.864-2.677-8.832zm-27.195-46.859c0,9.693-3.135,15.08-5.424,19.016-1.727,2.966-2.677,4.6-2.677,8.829 0,4.23 0.95,5.864 2.677,8.831 2.289,3.934 5.424,9.322 5.424,19.016 0,9.694-3.135,15.083-5.424,19.018-1.727,2.967-2.677,4.6-2.677,8.83 0,5.592-4.534,10.126-10.126,10.126-5.593,0-10.126-4.534-10.126-10.126 0-9.692 3.135-15.081 5.424-19.015 1.726-2.968 2.677-4.601 2.677-8.833 0-4.23-0.951-5.864-2.677-8.832-2.289-3.934-5.424-9.322-5.424-19.015 0-9.692 3.135-15.08 5.424-19.015 1.727-2.966 2.677-4.601 2.677-8.83 0-5.592 4.534-10.125 10.126-10.125s10.126,4.533 10.126,10.125z" fill="#FFFFFF"/>
  </g>
</svg>
